<svg width="29" height="29" viewBox="0 0 29 29" fill="none" xmlns="http://www.w3.org/2000/svg">
<g id="Subtract">
<path d="M14.0049 28.5C21.7369 28.5 28.0049 22.232 28.0049 14.5C28.0049 13.3778 27.8729 12.2865 27.6235 11.2407C27.4844 10.6574 26.8372 10.3803 26.2953 10.6371C25.85 10.8482 25.6308 11.3526 25.7396 11.8333C25.9337 12.691 26.0361 13.5836 26.0361 14.5C26.0361 21.1447 20.6496 26.5312 14.0049 26.5312C7.3602 26.5312 1.97363 21.1447 1.97363 14.5C1.97363 7.85532 7.3602 2.46875 14.0049 2.46875C18.2233 2.46875 21.9347 4.63979 24.0826 7.92549C24.369 8.36359 24.9312 8.54966 25.4042 8.32547C25.9153 8.08318 26.1219 7.46001 25.8178 6.98308C23.3323 3.08518 18.9705 0.5 14.0049 0.5C6.2729 0.5 0.00488281 6.76801 0.00488281 14.5C0.00488281 22.232 6.2729 28.5 14.0049 28.5Z" fill="#A50113"/>
<path fill-rule="evenodd" clip-rule="evenodd" d="M21.2798 9.0947L17.1061 17.2852C17.0436 17.4078 16.9678 17.531 16.8433 17.5894L8.34907 21.5757C7.40616 22.0182 6.437 21.017 6.90989 20.0889L11.1779 11.713C11.1868 11.6891 11.233 11.6318 11.3469 11.594L19.8406 7.60797C20.7835 7.16547 21.7527 8.16665 21.2798 9.0947ZM18.3077 11.4725L15.8357 16.2156C15.8231 16.2396 15.8073 16.262 15.7858 16.2785C15.7676 16.2925 15.7439 16.3082 15.7184 16.3199L10.7608 18.5946C10.2105 18.8471 9.64486 18.2758 9.92086 17.7463L12.4119 12.9666C12.417 12.9529 12.444 12.9202 12.5105 12.8987L17.4677 10.6241C18.018 10.3716 18.5837 10.9429 18.3077 11.4725Z" fill="#A50113"/>
</g>
</svg>
