<svg width="26" height="25" viewBox="0 0 26 25" fill="none" xmlns="http://www.w3.org/2000/svg">
<path id="Vector" d="M5.70146 2.77778C5.78479 4.01389 5.99312 5.22222 6.32646 6.375L4.65979 8.04167C4.09035 6.375 3.72923 4.61111 3.60423 2.77778H5.70146ZM19.3959 19.4722C20.5765 19.8056 21.7848 20.0139 23.007 20.0972V22.1667C21.1737 22.0417 19.4098 21.6806 17.7292 21.125L19.3959 19.4722ZM7.03479 0H2.17368C1.40979 0 0.78479 0.625 0.78479 1.38889C0.78479 14.4306 11.3542 25 24.3959 25C25.1598 25 25.7848 24.375 25.7848 23.6111V18.7639C25.7848 18 25.1598 17.375 24.3959 17.375C22.6737 17.375 20.9931 17.0972 19.4376 16.5833C19.2987 16.5278 19.1459 16.5139 19.007 16.5139C18.6459 16.5139 18.2987 16.6528 18.0209 16.9167L14.9653 19.9722C11.0348 17.9583 7.81257 14.75 5.81257 10.8194L8.86812 7.76389C9.25701 7.375 9.36812 6.83333 9.21534 6.34722C8.70146 4.79167 8.42368 3.125 8.42368 1.38889C8.42368 0.625 7.79868 0 7.03479 0Z" fill="#C2C2C2"/>
</svg>
