<svg width="31" height="25" viewBox="0 0 31 25" fill="none" xmlns="http://www.w3.org/2000/svg">
<path id="Subtract" fill-rule="evenodd" clip-rule="evenodd" d="M0.849375 13.0955C1.01472 12.5995 15.3993 0 15.3993 0C15.3993 0 16.708 1.18574 18.5415 2.84437L19.2567 3.49124C19.3528 4.97364 18.7462 5.48211 17.3316 5.29918L16.7221 4.75053L15.3993 3.55999L7.46299 10.7032V22.3546H11.4312V14.4182H19.3675V22.3546H23.3357V10.7032L19.857 7.57218C19.5632 6.02259 20.101 5.45084 21.6206 5.62805C22.9189 6.80084 24.2635 8.01424 25.4851 9.11424C27.7919 11.1913 29.66 12.8641 29.9493 13.0955C30.776 13.7568 25.9811 13.0955 25.9811 13.0955V25H16.7221V17.0637H14.0766V25H4.81755V13.0955C4.81755 13.0955 0.684034 13.5915 0.849375 13.0955Z" fill="#C2C2C2"/>
</svg>
