<svg width="36" height="37" viewBox="0 0 36 37" fill="none" xmlns="http://www.w3.org/2000/svg">
<g id="iconoir:bell-notification">
<path id="Vector" d="M25.3201 17.3014C26.0234 23.7522 28.7895 25.7024 28.7895 25.7024H7C7 25.7024 10.6316 23.1425 10.6316 14.181C10.6316 12.1443 11.3966 10.1905 12.7585 8.75029C14.1215 7.3101 15.97 6.5 17.8947 6.5C18.3027 6.5 18.7082 6.536 19.1053 6.60801M19.9889 29.3029C19.7764 29.667 19.471 29.9692 19.1034 30.1793C18.7359 30.3894 18.319 30.5 17.8947 30.5C17.4705 30.5 17.0536 30.3894 16.6861 30.1793C16.3185 29.9692 16.0131 29.667 15.8005 29.3029M26.3684 13.7009C27.3316 13.7009 28.2553 13.3216 28.9363 12.6464C29.6174 11.9712 30 11.0554 30 10.1005C30 9.14556 29.6174 8.22977 28.9363 7.55455C28.2553 6.87933 27.3316 6.5 26.3684 6.5C25.4053 6.5 24.4816 6.87933 23.8005 7.55455C23.1195 8.22977 22.7368 9.14556 22.7368 10.1005C22.7368 11.0554 23.1195 11.9712 23.8005 12.6464C24.4816 13.3216 25.4053 13.7009 26.3684 13.7009Z" stroke="#FC001C" stroke-opacity="0.8" stroke-width="1.5" stroke-linecap="round" stroke-linejoin="round"/>
</g>
</svg>
