<svg width="19" height="18" viewBox="0 0 19 18" fill="none" xmlns="http://www.w3.org/2000/svg">
<g id="syringe-solid" clip-path="url(#clip0_737_1327)">
<path id="Vector" d="M16.0039 0.246071L17.1289 1.37107L18.2539 2.49607C18.5844 2.82654 18.5844 3.36091 18.2539 3.68787C17.9234 4.01482 17.389 4.01834 17.0621 3.68787L16.5347 3.16052L15.1918 4.49998L17.1254 6.43357C17.4558 6.76404 17.4558 7.29841 17.1254 7.62537C16.7949 7.95232 16.2605 7.95584 15.9336 7.62537L13.4023 5.09412L10.8711 2.56638C10.5406 2.23591 10.5406 1.70154 10.8711 1.37459C11.2015 1.04763 11.7359 1.04412 12.0629 1.37459L13.9965 3.30818L15.3394 1.96873L14.8086 1.44138C14.4781 1.11091 14.4781 0.57654 14.8086 0.249587C15.139 -0.0773664 15.6734 -0.080882 16.0004 0.249587L16.0039 0.246071ZM7.89334 5.47381L10.0414 3.32576C10.0519 3.33631 10.0625 3.35037 10.0765 3.36091L10.639 3.92341L12.6078 5.89217L14.5765 7.86092L15.139 8.42342C15.1496 8.43396 15.1601 8.44451 15.1742 8.45857L8.45935 15.1734C8.09021 15.5426 7.59099 15.75 7.06717 15.75H3.94177L1.94138 17.7539C1.61091 18.0844 1.07654 18.0844 0.749587 17.7539C0.422634 17.4234 0.419118 16.889 0.749587 16.5621L2.75349 14.5582V11.4363C2.75349 10.9125 2.96091 10.4133 3.33006 10.0441L4.85232 8.52185L6.85623 10.5258C7.0742 10.7437 7.43279 10.7437 7.65076 10.5258C7.86873 10.3078 7.86873 9.9492 7.65076 9.73123L5.64685 7.72732L7.10232 6.27185L9.10623 8.27576C9.3242 8.49373 9.68279 8.49373 9.90076 8.27576C10.1187 8.05779 10.1187 7.6992 9.90076 7.48123L7.89685 5.47732L7.89334 5.47381Z" fill="#1A1717"/>
</g>
<defs>
<clipPath id="clip0_737_1327">
<rect width="18" height="18" fill="white" transform="translate(0.5)"/>
</clipPath>
</defs>
</svg>
