<svg width="32" height="33" viewBox="0 0 32 33" fill="none" xmlns="http://www.w3.org/2000/svg">
<g id="material-symbols:info-outline">
<path id="Vector" d="M14.6666 23.1667H17.3333V15.1667H14.6666V23.1667ZM16 12.5C16.3777 12.5 16.6946 12.372 16.9506 12.116C17.2066 11.86 17.3342 11.5435 17.3333 11.1667C17.3333 10.7889 17.2053 10.472 16.9493 10.216C16.6933 9.95999 16.3768 9.83243 16 9.83332C15.6222 9.83332 15.3053 9.96132 15.0493 10.2173C14.7933 10.4733 14.6657 10.7898 14.6666 11.1667C14.6666 11.5444 14.7946 11.8613 15.0506 12.1173C15.3066 12.3733 15.6231 12.5009 16 12.5ZM16 29.8333C14.1555 29.8333 12.4222 29.4831 10.8 28.7827C9.17774 28.0822 7.76663 27.1324 6.56663 25.9333C5.36663 24.7333 4.41685 23.3222 3.71729 21.7C3.01774 20.0778 2.66751 18.3444 2.66663 16.5C2.66663 14.6555 3.01685 12.9222 3.71729 11.3C4.41774 9.67777 5.36751 8.26666 6.56663 7.06666C7.76663 5.86666 9.17774 4.91688 10.8 4.21732C12.4222 3.51777 14.1555 3.16755 16 3.16666C17.8444 3.16666 19.5777 3.51688 21.2 4.21732C22.8222 4.91777 24.2333 5.86755 25.4333 7.06666C26.6333 8.26666 27.5835 9.67777 28.284 11.3C28.9844 12.9222 29.3342 14.6555 29.3333 16.5C29.3333 18.3444 28.9831 20.0778 28.2826 21.7C27.5822 23.3222 26.6324 24.7333 25.4333 25.9333C24.2333 27.1333 22.8222 28.0835 21.2 28.784C19.5777 29.4844 17.8444 29.8342 16 29.8333ZM16 27.1667C18.9777 27.1667 21.5 26.1333 23.5666 24.0667C25.6333 22 26.6666 19.4778 26.6666 16.5C26.6666 13.5222 25.6333 11 23.5666 8.93332C21.5 6.86666 18.9777 5.83332 16 5.83332C13.0222 5.83332 10.5 6.86666 8.43329 8.93332C6.36663 11 5.33329 13.5222 5.33329 16.5C5.33329 19.4778 6.36663 22 8.43329 24.0667C10.5 26.1333 13.0222 27.1667 16 27.1667Z" fill="#FC001C" fill-opacity="0.8"/>
</g>
</svg>
