<svg width="25" height="26" viewBox="0 0 25 26" fill="none" xmlns="http://www.w3.org/2000/svg">
<g id="Edit">
<path id="Rectangle 1" d="M6.76618 14.1947C6.75368 14.2072 6.74082 14.22 6.72765 14.2331C6.57548 14.3843 6.38286 14.5758 6.24598 14.8175C6.10909 15.0593 6.04403 15.323 5.99262 15.5313C5.98795 15.5502 5.9834 15.5686 5.97892 15.5866L5.27372 18.4074C5.27092 18.4186 5.26799 18.4302 5.26497 18.4422C5.22815 18.5887 5.17715 18.7916 5.15958 18.9712C5.13936 19.1779 5.13268 19.6299 5.50146 19.9986C5.87024 20.3674 6.32219 20.3607 6.52889 20.3405C6.7085 20.3229 6.91142 20.2719 7.0579 20.2351C7.06991 20.2321 7.08153 20.2292 7.09274 20.2264L9.91352 19.5212C9.93146 19.5167 9.94991 19.5121 9.96883 19.5075C10.1771 19.4561 10.4408 19.391 10.6826 19.2541L6.76618 14.1947ZM6.76618 14.1947C6.7668 14.1941 6.76741 14.1935 6.76802 14.1929L14.3371 6.62378C14.3499 6.61094 14.3628 6.59811 14.3756 6.5853C14.6754 6.28538 14.9667 5.99391 15.2394 5.78586C15.5468 5.55133 15.9448 5.33089 16.4584 5.33089C16.9721 5.33089 17.37 5.55133 17.6774 5.78586C17.9501 5.9939 18.2415 6.28537 18.5413 6.58528C18.5541 6.5981 18.5669 6.61094 18.5797 6.62378L17.8726 7.33089L18.5797 6.62378L18.8763 6.92035C18.8891 6.93319 18.902 6.94601 18.9148 6.95881C19.2147 7.25862 19.5062 7.54998 19.7142 7.82265C19.9488 8.13005 20.1692 8.52801 20.1692 9.04167C20.1692 9.55534 19.9488 9.95329 19.7142 10.2607C19.5062 10.5334 19.2147 10.8247 18.9148 11.1245C18.902 11.1373 18.8891 11.1502 18.8763 11.163L11.3072 18.7321C11.2942 18.7451 11.2808 18.7586 11.267 18.7724C11.1158 18.9246 10.9243 19.1172 10.6826 19.2541L6.76618 14.1947Z" stroke="white" stroke-width="2"/>
<path id="Vector 107" d="M13.8542 7.47916L16.9792 5.39583L20.1042 8.52083L18.0209 11.6458L13.8542 7.47916Z" fill="white"/>
</g>
</svg>
