<svg width="36" height="37" viewBox="0 0 36 37" fill="none" xmlns="http://www.w3.org/2000/svg">
<g id="Setting_fill">
<path id="Subtract" fill-rule="evenodd" clip-rule="evenodd" d="M21.1801 5.30097V5.30099L21.2539 6.03891C21.4172 7.67244 21.4989 8.48921 22.0517 8.7182C22.6046 8.94718 23.2398 8.42739 24.5104 7.38781L25.0844 6.91823C25.7501 6.37352 26.083 6.10116 26.4678 6.12036C26.8527 6.13955 27.1568 6.44368 27.7651 7.05193L29.448 8.73488C30.0563 9.34313 30.3604 9.64726 30.3796 10.0321C30.3988 10.4169 30.1264 10.7498 29.5817 11.4156L29.1121 11.9895C28.0725 13.2601 27.5527 13.8954 27.7817 14.4483C28.0107 15.0011 28.8275 15.0827 30.461 15.2461L31.199 15.3199C32.0549 15.4055 32.4829 15.4483 32.7415 15.734C33 16.0197 33 16.4498 33 17.31V19.69C33 20.5502 33 20.9803 32.7415 21.266C32.4829 21.5517 32.0549 21.5945 31.199 21.6801H31.199L30.4616 21.7538C28.828 21.9172 28.0113 21.9989 27.7823 22.5517C27.5533 23.1045 28.0731 23.7398 29.1127 25.0104L29.5818 25.5838C30.1265 26.2495 30.3989 26.5824 30.3797 26.9672C30.3605 27.3521 30.0563 27.6562 29.4481 28.2645L27.7651 29.9474C27.1569 30.5557 26.8528 30.8598 26.4679 30.879C26.0831 30.8982 25.7502 30.6258 25.0844 30.0811L24.5105 29.6115C23.2399 28.5719 22.6046 28.0522 22.0518 28.2811C21.499 28.5101 21.4173 29.3269 21.254 30.9604L21.1801 31.699C21.0945 32.5549 21.0517 32.9829 20.766 33.2415C20.4803 33.5 20.0502 33.5 19.19 33.5H16.81C15.9498 33.5 15.5197 33.5 15.234 33.2415C14.9483 32.9829 14.9055 32.5549 14.8199 31.699L14.7461 30.961C14.5827 29.3275 14.5011 28.5107 13.9483 28.2817C13.3954 28.0527 12.7601 28.5725 11.4896 29.6121L10.9155 30.0818C10.2497 30.6265 9.91686 30.8989 9.53203 30.8797C9.14719 30.8605 8.84307 30.5563 8.23481 29.9481L6.55186 28.2651C5.94361 27.6569 5.63948 27.3528 5.62029 26.9679C5.6011 26.5831 5.87345 26.2502 6.41816 25.5844L6.8878 25.0104C7.92738 23.7398 8.44717 23.1045 8.21819 22.5517C7.9892 21.9989 7.17243 21.9172 5.5389 21.7539L4.80099 21.6801H4.80097C3.94505 21.5945 3.51709 21.5517 3.25855 21.266C3 20.9803 3 20.5502 3 19.69L3 17.31C3 16.4498 3 16.0197 3.25855 15.734C3.5171 15.4483 3.94506 15.4055 4.80099 15.3199L5.53946 15.2461C7.173 15.0827 7.98977 15.001 8.21875 14.4482C8.44773 13.8954 7.92795 13.2601 6.88837 11.9895L6.41823 11.4149C5.87352 10.7491 5.60116 10.4163 5.62036 10.0314C5.63955 9.64658 5.94368 9.34246 6.55193 8.7342L6.55193 8.7342L8.23488 7.05125C8.84314 6.443 9.14726 6.13887 9.5321 6.11968C9.91693 6.10048 10.2498 6.37284 10.9156 6.91755L11.4896 7.38723C12.7602 8.4268 13.3955 8.94659 13.9483 8.71761C14.5011 8.48862 14.5828 7.67186 14.7462 6.03832L14.8199 5.30099C14.9055 4.44506 14.9483 4.01709 15.234 3.75855C15.5197 3.5 15.9498 3.5 16.81 3.5H19.19C20.0502 3.5 20.4803 3.5 20.766 3.75855C21.0517 4.01709 21.0945 4.44505 21.1801 5.30097ZM18 24.5C21.3137 24.5 24 21.8137 24 18.5C24 15.1863 21.3137 12.5 18 12.5C14.6863 12.5 12 15.1863 12 18.5C12 21.8137 14.6863 24.5 18 24.5Z" fill="#FA3147"/>
</g>
</svg>
