<svg width="19" height="18" viewBox="0 0 19 18" fill="none" xmlns="http://www.w3.org/2000/svg">
<g id="shield-virus-solid 1">
<path id="Vector" d="M9.97111 0.101953C9.82345 0.0351563 9.66525 0 9.50002 0C9.33478 0 9.17658 0.0351563 9.02892 0.101953L2.409 2.91094C1.63556 3.23789 1.059 4.00078 1.06252 4.92188C1.08009 8.40937 2.51447 14.7902 8.57189 17.6906C9.159 17.9719 9.84103 17.9719 10.4281 17.6906C16.4856 14.7902 17.9199 8.40937 17.9375 4.92188C17.941 4.00078 17.3645 3.23789 16.591 2.91094L9.97111 0.101953ZM9.50002 3.9375C9.80939 3.9375 10.0625 4.19062 10.0625 4.5C10.0625 5.66016 11.4653 6.24023 12.2844 5.42109C12.5024 5.20312 12.861 5.20312 13.0789 5.42109C13.2969 5.63906 13.2969 5.99766 13.0789 6.21563C12.2598 7.03477 12.8399 8.4375 14 8.4375C14.3094 8.4375 14.5625 8.69062 14.5625 9C14.5625 9.30938 14.3094 9.5625 14 9.5625C12.8399 9.5625 12.2598 10.9652 13.0789 11.7844C13.2969 12.0023 13.2969 12.3609 13.0789 12.5789C12.861 12.7969 12.5024 12.7969 12.2844 12.5789C11.4653 11.7598 10.0625 12.3398 10.0625 13.5C10.0625 13.8094 9.80939 14.0625 9.50002 14.0625C9.19064 14.0625 8.93752 13.8094 8.93752 13.5C8.93752 12.3398 7.53478 11.7598 6.71564 12.5789C6.49767 12.7969 6.13908 12.7969 5.92111 12.5789C5.70314 12.3609 5.70314 12.0023 5.92111 11.7844C6.74025 10.9652 6.16017 9.5625 5.00002 9.5625C4.69064 9.5625 4.43752 9.30938 4.43752 9C4.43752 8.69062 4.69064 8.4375 5.00002 8.4375C6.16017 8.4375 6.74025 7.03477 5.92111 6.21563C5.70314 5.99766 5.70314 5.63906 5.92111 5.42109C6.13908 5.20312 6.49767 5.20312 6.71564 5.42109C7.53478 6.24023 8.93752 5.66016 8.93752 4.5C8.93752 4.19062 9.19064 3.9375 9.50002 3.9375ZM8.65627 9C8.88004 9 9.09465 8.91111 9.25289 8.75287C9.41112 8.59464 9.50002 8.38003 9.50002 8.15625C9.50002 7.93247 9.41112 7.71786 9.25289 7.55963C9.09465 7.40139 8.88004 7.3125 8.65627 7.3125C8.43249 7.3125 8.21788 7.40139 8.05964 7.55963C7.90141 7.71786 7.81252 7.93247 7.81252 8.15625C7.81252 8.38003 7.90141 8.59464 8.05964 8.75287C8.21788 8.91111 8.43249 9 8.65627 9ZM11.1875 10.125C11.1875 9.97582 11.1283 9.83274 11.0228 9.72725C10.9173 9.62176 10.7742 9.5625 10.625 9.5625C10.4758 9.5625 10.3328 9.62176 10.2273 9.72725C10.1218 9.83274 10.0625 9.97582 10.0625 10.125C10.0625 10.2742 10.1218 10.4173 10.2273 10.5227C10.3328 10.6282 10.4758 10.6875 10.625 10.6875C10.7742 10.6875 10.9173 10.6282 11.0228 10.5227C11.1283 10.4173 11.1875 10.2742 11.1875 10.125Z" fill="#1A1717"/>
</g>
</svg>
