<svg width="36" height="37" viewBox="0 0 36 37" fill="none" xmlns="http://www.w3.org/2000/svg">
<g id="iconamoon:profile-thin">
<g id="Group">
<path id="Vector" d="M6 27.5C6 25.9087 6.63214 24.3826 7.75736 23.2574C8.88258 22.1321 10.4087 21.5 12 21.5H24C25.5913 21.5 27.1174 22.1321 28.2426 23.2574C29.3679 24.3826 30 25.9087 30 27.5C30 28.2956 29.6839 29.0587 29.1213 29.6213C28.5587 30.1839 27.7956 30.5 27 30.5H9C8.20435 30.5 7.44129 30.1839 6.87868 29.6213C6.31607 29.0587 6 28.2956 6 27.5Z" stroke="#FC001C" stroke-opacity="0.8" stroke-width="2" stroke-linejoin="round"/>
<path id="Vector_2" d="M18 15.5C20.4853 15.5 22.5 13.4853 22.5 11C22.5 8.51472 20.4853 6.5 18 6.5C15.5147 6.5 13.5 8.51472 13.5 11C13.5 13.4853 15.5147 15.5 18 15.5Z" stroke="#FC001C" stroke-opacity="0.8" stroke-width="2"/>
</g>
</g>
</svg>
