<svg width="22" height="18" viewBox="0 0 22 18" fill="none" xmlns="http://www.w3.org/2000/svg">
<g id="capsules-solid" clip-path="url(#clip0_737_1323)">
<path id="Vector" d="M3.125 5.0625C3.125 4.13086 3.88086 3.375 4.8125 3.375C5.74414 3.375 6.5 4.13086 6.5 5.0625V9H3.125V5.0625ZM0.875 5.0625V12.9375C0.875 15.1137 2.63633 16.875 4.8125 16.875C6.98867 16.875 8.75 15.1137 8.75 12.9375V6.66563C8.81328 7.33711 9.03828 8.00156 9.44609 8.59219L13.9637 15.177C15.2117 16.9945 17.6656 17.4375 19.448 16.1648C21.2305 14.8922 21.6629 12.3855 20.4148 10.568L15.8973 3.9832C14.6492 2.16211 12.1918 1.72266 10.4129 2.99531C9.42852 3.69844 8.85547 4.78125 8.75 5.91328V5.0625C8.75 2.88633 6.98867 1.125 4.8125 1.125C2.63633 1.125 0.875 2.88633 0.875 5.0625ZM11.3023 7.31953C10.7398 6.50039 10.9508 5.37539 11.7207 4.82344C12.466 4.29258 13.4961 4.46133 14.041 5.25234L16.3965 8.68359L13.5875 10.6523L11.3023 7.31953ZM18.1367 14.3332C18.1086 14.3543 18.0805 14.3719 18.0523 14.3895L18.193 14.291C18.1754 14.3051 18.1578 14.3191 18.1367 14.3332Z" fill="#1A1717"/>
</g>
<defs>
<clipPath id="clip0_737_1323">
<rect width="20.25" height="18" fill="white" transform="translate(0.875)"/>
</clipPath>
</defs>
</svg>
