<svg width="18" height="18" viewBox="0 0 18 18" fill="none" xmlns="http://www.w3.org/2000/svg">
<g id="virus-covid-solid" clip-path="url(#clip0_737_1344)">
<path id="Vector" d="M6.75 0.84375C6.75 0.376172 7.12617 0 7.59375 0H10.4062C10.8738 0 11.25 0.376172 11.25 0.84375C11.25 1.31133 10.8738 1.6875 10.4062 1.6875H9.84375V2.86875C10.923 3.01641 11.9109 3.4418 12.7371 4.06758L13.5738 3.23438L13.1766 2.83359C12.8461 2.50312 12.8461 1.96875 13.1766 1.6418C13.507 1.31484 14.0414 1.31133 14.3684 1.6418L16.3582 3.63164C16.6887 3.96211 16.6887 4.49648 16.3582 4.82344C16.0277 5.15039 15.4934 5.15391 15.1664 4.82344L14.7656 4.42617L13.9289 5.26289C14.5582 6.08906 14.9801 7.08047 15.1277 8.15625H16.3125V7.59375C16.3125 7.12617 16.6887 6.75 17.1562 6.75C17.6238 6.75 18 7.12617 18 7.59375V10.4062C18 10.8738 17.6238 11.25 17.1562 11.25C16.6887 11.25 16.3125 10.8738 16.3125 10.4062V9.84375H15.1312C14.9836 10.923 14.5582 11.9109 13.9324 12.7371L14.7656 13.5738L15.1629 13.1766C15.4934 12.8461 16.0277 12.8461 16.3547 13.1766C16.6816 13.507 16.6852 14.0414 16.3547 14.3684L14.3648 16.3582C14.0344 16.6887 13.5 16.6887 13.173 16.3582C12.8461 16.0277 12.8426 15.4934 13.173 15.1664L13.5738 14.7656L12.7371 13.9289C11.9109 14.5582 10.9195 14.9801 9.84375 15.1277V16.3125H10.4062C10.8738 16.3125 11.25 16.6887 11.25 17.1562C11.25 17.6238 10.8738 18 10.4062 18H7.59375C7.12617 18 6.75 17.6238 6.75 17.1562C6.75 16.6887 7.12617 16.3125 7.59375 16.3125H8.15625V15.1312C7.07695 14.9836 6.08906 14.5582 5.26289 13.9324L4.42617 14.7656L4.82344 15.1629C5.15391 15.4934 5.15391 16.0277 4.82344 16.3547C4.49297 16.6816 3.95859 16.6852 3.63164 16.3547L1.6418 14.3684C1.31133 14.0379 1.31133 13.5035 1.6418 13.1766C1.97227 12.8496 2.50664 12.8461 2.83359 13.1766L3.23438 13.5738L4.07109 12.7371C3.4418 11.9109 3.01641 10.923 2.86875 9.84375H1.6875V10.4062C1.6875 10.8738 1.31133 11.25 0.84375 11.25C0.376172 11.25 0 10.8738 0 10.4062V7.59375C0 7.12617 0.376172 6.75 0.84375 6.75C1.31133 6.75 1.6875 7.12617 1.6875 7.59375V8.15625H2.86875C3.01641 7.07695 3.4418 6.08906 4.06758 5.26289L3.23438 4.42617L2.83359 4.82344C2.50312 5.15391 1.96875 5.15391 1.6418 4.82344C1.31484 4.49297 1.31133 3.95859 1.6418 3.63164L3.63164 1.6418C3.96211 1.31133 4.49648 1.31133 4.82344 1.6418C5.15039 1.97227 5.15391 2.50664 4.82344 2.83359L4.42617 3.23438L5.26289 4.07109C6.08906 3.4418 7.08047 3.01992 8.15625 2.87227V1.6875H7.59375C7.12617 1.6875 6.75 1.31133 6.75 0.84375ZM8.4375 7.875C8.4375 7.42745 8.25971 6.99822 7.94324 6.68176C7.62678 6.36529 7.19755 6.1875 6.75 6.1875C6.30245 6.1875 5.87322 6.36529 5.55676 6.68176C5.24029 6.99822 5.0625 7.42745 5.0625 7.875C5.0625 8.32255 5.24029 8.75178 5.55676 9.06824C5.87322 9.38471 6.30245 9.5625 6.75 9.5625C7.19755 9.5625 7.62678 9.38471 7.94324 9.06824C8.25971 8.75178 8.4375 8.32255 8.4375 7.875ZM10.6875 11.5312C10.9113 11.5312 11.1259 11.4424 11.2841 11.2841C11.4424 11.1259 11.5312 10.9113 11.5312 10.6875C11.5312 10.4637 11.4424 10.2491 11.2841 10.0909C11.1259 9.93265 10.9113 9.84375 10.6875 9.84375C10.4637 9.84375 10.2491 9.93265 10.0909 10.0909C9.93265 10.2491 9.84375 10.4637 9.84375 10.6875C9.84375 10.9113 9.93265 11.1259 10.0909 11.2841C10.2491 11.4424 10.4637 11.5312 10.6875 11.5312Z" fill="#1A1717"/>
</g>
<defs>
<clipPath id="clip0_737_1344">
<rect width="18" height="18" fill="white"/>
</clipPath>
</defs>
</svg>
