<svg width="36" height="37" viewBox="0 0 36 37" fill="none" xmlns="http://www.w3.org/2000/svg">
<path d="M16.0523 33.4836L3.34687 21.6219C3.05156 21.3477 2.77031 21.0524 2.51016 20.75H8.62734C10.2164 20.75 11.6508 19.7938 12.2625 18.3242L13.0008 16.5524L16.4672 24.2516C16.7344 24.8492 17.318 25.2359 17.9719 25.243C18.6258 25.25 19.2234 24.8914 19.5188 24.3078L22.5 18.3383L22.6195 18.5774C23.2875 19.9133 24.6516 20.757 26.1422 20.757H33.4898C33.2297 21.0594 32.9484 21.3547 32.6531 21.6289L19.9477 33.4836C19.4203 33.9758 18.7242 34.25 18 34.25C17.2758 34.25 16.5797 33.9758 16.0523 33.4836ZM35.4164 17.375H26.1352C25.9242 17.375 25.7273 17.2555 25.6289 17.0656L23.9977 13.8102C23.7094 13.2406 23.1258 12.875 22.4859 12.875C21.8461 12.875 21.2625 13.2336 20.9742 13.8102L18.0633 19.632L14.4773 11.6234C14.2031 11.0117 13.5844 10.618 12.9164 10.632C12.2484 10.6461 11.6437 11.0469 11.3836 11.6727L9.14766 17.0375C9.06328 17.2484 8.85234 17.382 8.62734 17.382H1.125C0.942188 17.382 0.773437 17.4102 0.611719 17.4594C0.210938 16.3344 0 15.1391 0 13.9227V13.5149C0 8.60001 3.55078 4.40939 8.39531 3.60079C11.6016 3.06642 14.8641 4.11407 17.1562 6.40626L18 7.25001L18.8438 6.40626C21.1359 4.11407 24.3984 3.06642 27.6047 3.60079C32.4492 4.40939 36 8.60001 36 13.5149V13.9227C36 15.1109 35.8031 16.2781 35.4164 17.375Z" fill="#FA3147"/>
</svg>
