<svg width="15" height="16" viewBox="0 0 15 16" fill="none" xmlns="http://www.w3.org/2000/svg">
<g id="map-pin">
<path id="Vector" d="M13.125 6.75C13.125 11.125 7.5 14.875 7.5 14.875C7.5 14.875 1.875 11.125 1.875 6.75C1.875 5.25816 2.46763 3.82742 3.52252 2.77252C4.57742 1.71763 6.00816 1.125 7.5 1.125C8.99184 1.125 10.4226 1.71763 11.4775 2.77252C12.5324 3.82742 13.125 5.25816 13.125 6.75Z" stroke="#A50101" stroke-width="2" stroke-linecap="round" stroke-linejoin="round"/>
<path id="Vector_2" d="M7.5 8.625C8.53553 8.625 9.375 7.78553 9.375 6.75C9.375 5.71447 8.53553 4.875 7.5 4.875C6.46447 4.875 5.625 5.71447 5.625 6.75C5.625 7.78553 6.46447 8.625 7.5 8.625Z" stroke="#A50101" stroke-width="2" stroke-linecap="round" stroke-linejoin="round"/>
</g>
</svg>
