<svg width="16" height="16" viewBox="0 0 16 16" fill="none" xmlns="http://www.w3.org/2000/svg">
<g id="mdi:car-sports-utility-vehicle">
<path id="Vector" d="M1.99999 4H10.6667L12.6667 6.66667H14C14.74 6.66667 15.3333 7.26 15.3333 8V10H14C14 10.5304 13.7893 11.0391 13.4142 11.4142C13.0391 11.7893 12.5304 12 12 12C11.4696 12 10.9608 11.7893 10.5858 11.4142C10.2107 11.0391 9.99999 10.5304 9.99999 10H5.99999C5.99999 10.5304 5.78928 11.0391 5.4142 11.4142C5.03913 11.7893 4.53042 12 3.99999 12C3.46956 12 2.96085 11.7893 2.58578 11.4142C2.2107 11.0391 1.99999 10.5304 1.99999 10H0.666656V5.33333C0.666656 4.59333 1.25999 4 1.99999 4ZM1.66666 5V6.66667H6.99999V5H1.66666ZM7.99999 5V6.66667H11.4267L10.1667 5H7.99999ZM3.99999 9C3.73477 9 3.48042 9.10536 3.29288 9.29289C3.10535 9.48043 2.99999 9.73478 2.99999 10C2.99999 10.2652 3.10535 10.5196 3.29288 10.7071C3.48042 10.8946 3.73477 11 3.99999 11C4.26521 11 4.51956 10.8946 4.7071 10.7071C4.89463 10.5196 4.99999 10.2652 4.99999 10C4.99999 9.73478 4.89463 9.48043 4.7071 9.29289C4.51956 9.10536 4.26521 9 3.99999 9ZM12 9C11.7348 9 11.4804 9.10536 11.2929 9.29289C11.1053 9.48043 11 9.73478 11 10C11 10.2652 11.1053 10.5196 11.2929 10.7071C11.4804 10.8946 11.7348 11 12 11C12.2652 11 12.5196 10.8946 12.7071 10.7071C12.8946 10.5196 13 10.2652 13 10C13 9.73478 12.8946 9.48043 12.7071 9.29289C12.5196 9.10536 12.2652 9 12 9Z" fill="#A50101"/>
</g>
</svg>
