<svg width="20" height="20" viewBox="0 0 20 20" fill="none" xmlns="http://www.w3.org/2000/svg">
<g id="ph:taxi-light">
<path id="Vector" d="M10.8266 4.38126L11.8078 4.38126L11.8084 4.38126L12.8148 4.38516H12.8151H14.635H14.6352V4.53516C14.8275 4.53481 15.0165 4.58518 15.1832 4.6812C15.3498 4.77721 15.4882 4.91547 15.5844 5.08204L10.8266 4.38126ZM10.8266 4.38126L10.4028 4.38126M10.8266 4.38126C10.759 4.38126 10.7131 4.38116 10.6716 4.38107C10.5991 4.38091 10.54 4.38078 10.4028 4.38126M5.36263 4.38126C5.14397 4.38088 4.92907 4.43816 4.73961 4.54732C4.5501 4.6565 4.39273 4.81372 4.28338 5.00313L4.28304 5.00371L2.13873 8.75626H1.25C1.0859 8.75626 0.928516 8.82145 0.812478 8.93748C0.69644 9.05352 0.63125 9.2109 0.63125 9.37501C0.63125 9.53911 0.69644 9.69649 0.812478 9.81253C0.928516 9.92857 1.0859 9.99376 1.25 9.99376H1.88125V16.25C1.88125 16.5799 2.01229 16.8962 2.24554 17.1295C2.47878 17.3627 2.79514 17.4938 3.125 17.4938H5C5.32986 17.4938 5.64622 17.3627 5.87946 17.1295C6.11271 16.8962 6.24375 16.5799 6.24375 16.25V14.9938H13.7563V16.25C13.7563 16.5799 13.8873 16.8962 14.1205 17.1295C14.3538 17.3627 14.6701 17.4938 15 17.4938H16.875C17.2049 17.4938 17.5212 17.3627 17.7545 17.1295C17.9877 16.8962 18.1187 16.5799 18.1187 16.25V9.99376H18.75C18.9141 9.99376 19.0715 9.92857 19.1875 9.81253C19.3036 9.69649 19.3687 9.53911 19.3687 9.37501C19.3687 9.2109 19.3036 9.05352 19.1875 8.93748C19.0715 8.82145 18.9141 8.75626 18.75 8.75626H17.8589L5.3625 4.53126M5.36263 4.38126C5.36268 4.38126 5.36273 4.38126 5.36277 4.38126L5.3625 4.53126M5.36263 4.38126H5.3625V4.53126M5.36263 4.38126H7.18281H7.72224H7.72386H7.72548H7.72708H7.72868H7.73027H7.73185H7.73343H7.735H7.73655H7.7381H7.73965H7.74118H7.74271H7.74423H7.74574H7.74724H7.74874H7.75023H7.75171H7.75318H7.75464H7.7561H7.75755H7.75899H7.76043H7.76185H7.76327H7.76469H7.76609H7.76749H7.76888H7.77026H7.77164H7.77301H7.77437H7.77572H7.77707H7.77841H7.77974H7.78107H7.78239H7.7837H7.78501H7.7863H7.7876H7.78888H7.79016H7.79143H7.7927H7.79395H7.7952H7.79645H7.79769H7.79892H7.80014H7.80136H7.80257H7.80378H7.80498H7.80617H7.80736H7.80854H7.80971H7.81088H7.81204H7.8132H7.81434H7.81549H7.81662H7.81776H7.81888H7.82H7.82111H7.82222H7.82332H7.82442H7.8255H7.82659H7.82767H7.82874H7.8298H7.83087H7.83192H7.83297H7.83401H7.83505H7.83609H7.83711H7.83814H7.83915H7.84016H7.84117H7.84217H7.84317H7.84416H7.84514H7.84612H7.8471H7.84807H7.84903H7.84999H7.85094H7.85189H7.85284H7.85378H7.85471H7.85564H7.85657H7.85749H7.8584H7.85931H7.86022H7.86112H7.86202H7.86291H7.8638H7.86468H7.86556H7.86643H7.8673H7.86817H7.86903H7.86989H7.87074H7.87159H7.87243H7.87327H7.87411H7.87494H7.87576H7.87659H7.87741H7.87822H7.87903H7.87984H7.88064H7.88144H7.88224H7.88303H7.88382H7.8846H7.88538H7.88616H7.88693H7.8877H7.88846H7.88923H7.88999H7.89074H7.89149H7.89224H7.89298H7.89373H7.89446H7.8952H7.89593H7.89666H7.89738H7.89811H7.89882H7.89954H7.90025H7.90096H7.90167H7.90237H7.90307H7.90377H7.90446H7.90516H7.90585H7.90653H7.90721H7.9079H7.90857H7.90925H7.90992H7.91059H7.91126H7.91192H7.91259H7.91325H7.9139H7.91456H7.91521H7.91586H7.91651H7.91716H7.9178H7.91844H7.91908H7.91972H7.92035H7.92099H7.92162H7.92225H7.92287H7.9235H7.92412H7.92474H7.92536H7.92598H7.92659H7.92721H7.92782H7.92843H7.92904H7.92965H7.93025H7.93085H7.93146H7.93206H7.93266H7.93326H7.93385H7.93445H7.93504H7.93563H7.93622H7.93681H7.9374H7.93799H7.93858H7.93916H7.93975H7.94033H7.94091H7.94149H7.94207H7.94265H7.94323H7.94381H7.94439H7.94496H7.94554H7.94611H7.94668H7.94726H7.94783H7.9484H7.94897H7.94954H7.95011H7.95068H7.95125H7.95182H7.95239H7.95296H7.95352H7.95409H7.95466H7.95523H7.95579H7.95636H7.95693H7.95749H7.95806H7.95863H7.95919H7.95976H7.96032H7.96089H7.96146H7.96202H7.96259H7.96316H7.96373H7.96429H7.96486H7.96543H7.966H7.96657H7.96714H7.96771H7.96828H7.96885H7.96942H7.97H7.97057H7.97114H7.97172H7.97229H7.97287H7.97345H7.97402H7.9746H7.97518H7.97576H7.97635H7.97693H7.97751H7.9781H7.97868H7.97927H7.97986H7.98045H7.98104H7.98163H7.98222H7.98281H7.98341H7.98401H7.98461H7.98521H7.98581H7.98641H7.98701H7.98762H7.98823H7.98884H7.98945H7.99006H7.99068H7.99129H7.99191H7.99253H7.99315H7.99378H7.9944H7.99503H7.99566H7.99629H7.99692H7.99756H7.9982H7.99884H7.99948H8.00012H8.00077H8.00142H8.00207H8.00273H8.00338H8.00404H8.0047H8.00536H8.00603H8.0067H8.00737H8.00804H8.00872H8.0094H8.01008H8.01077H8.01145H8.01214H8.01284H8.01353H8.01423H8.01493H8.01564H8.01635H8.01706H8.01777H8.01849H8.01921H8.01993H8.02066H8.02138H8.02212H8.02285H8.02359H8.02434H8.02508H8.02583H8.02658H8.02734H8.0281H8.02886H8.02963H8.0304H8.03118H8.03195H8.03274H8.03352H8.03431H8.0351H8.0359H8.0367H8.03751H8.03831H8.03913H8.03994H8.04076H8.04159H8.04242H8.04325H8.04409H8.04493H8.04577H8.04662H8.04748H8.04834H8.0492H8.05007H8.05094H8.05181H8.05269H8.05358H8.05447H8.05536H8.05626H8.05716H8.05807H8.05898H8.0599H8.06082H8.06175H8.06268H8.06362H8.06456H8.06551H8.06646H8.06742H8.06838H8.06934H8.07031H8.07129H8.07227H8.07326H8.07425H8.07525H8.07625H8.07726H8.07827H8.07929H8.08032H8.08135H8.08238H8.08342H8.08447H8.08552H8.08658H8.08764H8.08871H8.08979H8.09087H8.09195H8.09304H8.09414H8.09524H8.09635H8.09747H8.09859H8.09972H8.10085H8.10199H8.10314H8.10429H8.10544H8.10661H8.10778H8.10895H8.11014H8.11133H8.11252H8.11372H8.11493H8.11615H8.11737H8.11859H8.11983H8.12107H8.12232H8.12357H8.12483H8.1261H8.12737H8.12865H8.12994H8.13123H8.13253H8.13384H8.13516H8.13648H8.13781H8.13914H8.14049H8.14184H8.1432H8.14456H8.14593H8.14731H8.1487H8.15009H8.15149H8.1529H8.15431H8.15574H8.15717H8.1586H8.16005H8.1615H8.16296H8.16443H8.1659H8.16739H8.16888H8.17038H8.17188H8.1734H8.17492H8.17645H8.17799H8.17953H8.18109H8.18265H8.18422H8.1858H8.18738H8.18898H8.19058H8.19219M5.3625 4.53126H7.18281H7.72224H8.19219V4.38126M8.19219 4.38126C8.26082 4.38126 8.40193 4.38121 8.57848 4.38115C9.10921 4.38097 9.9602 4.38068 10.1253 4.38126L10.125 4.38126H8.19219ZM10.4028 4.38126C10.4018 4.38126 10.4008 4.38127 10.3997 4.38127L10.1865 4.38126L10.4028 4.38126ZM11.8078 4.53126L8.19219 4.53126M1.88125 9.84376H2.03125V9.99376L1.88125 9.84376ZM5.35725 5.62188C5.35727 5.62185 5.35729 5.62181 5.35731 5.62178C5.35786 5.62087 5.35862 5.62012 5.35953 5.61959C5.36047 5.61905 5.36154 5.61876 5.36262 5.61876C5.36263 5.61876 5.36264 5.61876 5.36265 5.61876H14.6373C14.6374 5.61876 14.6374 5.61876 14.6374 5.61876C14.6385 5.61876 14.6395 5.61905 14.6405 5.61959C14.6414 5.62013 14.6422 5.62089 14.6427 5.62181C14.6427 5.62183 14.6427 5.62186 14.6428 5.62188L16.4337 8.75626H3.56628L5.35725 5.62188ZM5.00625 16.25C5.00625 16.2517 5.00559 16.2533 5.00442 16.2544C5.00325 16.2556 5.00166 16.2563 5 16.2563H3.125C3.12334 16.2563 3.12175 16.2556 3.12058 16.2544C3.11941 16.2533 3.11875 16.2517 3.11875 16.25V14.9938H5.00625V16.25ZM16.875 16.2563H15C14.9983 16.2563 14.9968 16.2556 14.9956 16.2544C14.9951 16.2539 14.9947 16.2534 14.9944 16.2528C14.994 16.2519 14.9938 16.251 14.9938 16.25V14.9938H16.8813V16.25C16.8813 16.2517 16.8806 16.2533 16.8794 16.2544C16.8782 16.2556 16.8767 16.2563 16.875 16.2563ZM16.8813 13.7563H3.11875V9.99376H16.8813V13.7563ZM4.56248 11.4375C4.44644 11.5535 4.38125 11.7109 4.38125 11.875C4.38125 12.0391 4.44644 12.1965 4.56248 12.3125C4.67852 12.4286 4.8359 12.4938 5 12.4938H6.25C6.4141 12.4938 6.57148 12.4286 6.68752 12.3125C6.80356 12.1965 6.86875 12.0391 6.86875 11.875C6.86875 11.7109 6.80356 11.5535 6.68752 11.4375C6.57148 11.3214 6.4141 11.2563 6.25 11.2563H5C4.8359 11.2563 4.67852 11.3214 4.56248 11.4375ZM13.3125 11.4375C13.1964 11.5535 13.1312 11.7109 13.1312 11.875C13.1312 12.0391 13.1964 12.1965 13.3125 12.3125C13.4285 12.4286 13.5859 12.4938 13.75 12.4938H15C15.1641 12.4938 15.3215 12.4286 15.4375 12.3125C15.5536 12.1965 15.6188 12.0391 15.6188 11.875C15.6188 11.7109 15.5536 11.5535 15.4375 11.4375C15.3215 11.3214 15.1641 11.2563 15 11.2563H13.75C13.5859 11.2563 13.4285 11.3214 13.3125 11.4375Z" fill="white" stroke="white" stroke-width="0.3"/>
</g>
</svg>
