<svg width="26" height="27" viewBox="0 0 26 27" fill="none" xmlns="http://www.w3.org/2000/svg">
<path id="Vector" d="M25.6558 22.5362C25.5445 22.0014 25.0209 21.6582 24.4859 21.7695C23.9511 21.8808 23.6079 22.4046 23.7193 22.9394C23.7834 23.2474 23.707 23.5631 23.5098 23.8057C23.3955 23.9462 23.1408 24.1819 22.7186 24.1819H3.40147C2.97924 24.1819 2.7245 23.9462 2.61027 23.8057C2.413 23.5632 2.33664 23.2474 2.40078 22.9394C3.42723 18.0091 7.7759 14.4077 12.7978 14.2862C12.8848 14.2896 12.9722 14.2912 13.06 14.2912C13.1481 14.2912 13.2359 14.2895 13.3232 14.2862C16.8607 14.371 20.1303 16.1628 22.1104 19.1157C22.4146 19.5695 23.0289 19.6906 23.4827 19.3865C23.9364 19.0823 24.0576 18.4679 23.7534 18.0142C22.1305 15.5937 19.7739 13.8337 17.0869 12.9493C18.7243 11.7215 19.7857 9.76515 19.7857 7.56562C19.7857 3.85713 16.7686 0.839996 13.06 0.839996C9.35148 0.839996 6.33439 3.85713 6.33439 7.56562C6.33439 9.76648 7.39704 11.7238 9.03616 12.9516C7.53437 13.446 6.1252 14.2154 4.89184 15.2299C2.63025 17.0901 1.05778 19.6849 0.464196 22.5362C0.278153 23.4296 0.501038 24.3473 1.07559 25.0538C1.64731 25.7568 2.49509 26.16 3.40147 26.16H22.7185C23.625 26.16 24.4727 25.7568 25.0444 25.0538C25.6191 24.3473 25.8419 23.4296 25.6558 22.5362ZM8.31252 7.56562C8.31252 4.94782 10.4422 2.81812 13.06 2.81812C15.6778 2.81812 17.8075 4.94782 17.8075 7.56562C17.8075 10.1028 15.8069 12.1815 13.3003 12.3071C13.2203 12.3056 13.1402 12.3049 13.06 12.3049C12.9802 12.3049 12.9004 12.3057 12.8207 12.3071C10.3136 12.1821 8.31252 10.1032 8.31252 7.56562Z" fill="#A50113"/>
</svg>
