<svg width="26" height="27" viewBox="0 0 26 27" fill="none" xmlns="http://www.w3.org/2000/svg">
<path id="Vector" d="M25.6558 22.5361C25.5445 22.0014 25.0208 21.6581 24.4859 21.7695C23.9511 21.8808 23.6078 22.4046 23.7192 22.9393C23.7833 23.2474 23.7069 23.5631 23.5097 23.8057C23.3955 23.9462 23.1407 24.1818 22.7185 24.1818H3.40141C2.97918 24.1818 2.72444 23.9461 2.61021 23.8057C2.41294 23.5631 2.33658 23.2474 2.40072 22.9393C3.42717 18.0091 7.77584 14.4076 12.7978 14.2862C12.8847 14.2895 12.9721 14.2912 13.06 14.2912C13.1481 14.2912 13.2358 14.2895 13.3231 14.2861C16.8606 14.371 20.1303 16.1627 22.1103 19.1157C22.4145 19.5694 23.0289 19.6906 23.4827 19.3864C23.9363 19.0822 24.0576 18.4678 23.7533 18.0141C22.1304 15.5937 19.7738 13.8337 17.0868 12.9493C18.7242 11.7214 19.7856 9.76512 19.7856 7.56559C19.7856 3.8571 16.7685 0.839966 13.06 0.839966C9.35142 0.839966 6.33433 3.8571 6.33433 7.56559C6.33433 9.76645 7.39698 11.7238 9.0361 12.9516C7.53431 13.446 6.12514 14.2154 4.89178 15.2298C2.63018 17.0901 1.05772 19.6849 0.464135 22.5361C0.278092 23.4296 0.500977 24.3473 1.07552 25.0537C1.64725 25.7568 2.49503 26.16 3.40141 26.16H22.7185C23.6249 26.16 24.4727 25.7568 25.0443 25.0537C25.619 24.3473 25.8418 23.4296 25.6558 22.5361ZM8.31245 7.56559C8.31245 4.94779 10.4422 2.81809 13.06 2.81809C15.6778 2.81809 17.8075 4.94779 17.8075 7.56559C17.8075 10.1028 15.8068 12.1815 13.3003 12.3071C13.2203 12.3056 13.1402 12.3048 13.06 12.3048C12.9801 12.3048 12.9003 12.3056 12.8206 12.3071C10.3136 12.182 8.31245 10.1031 8.31245 7.56559Z" fill="#C2C2C2"/>
</svg>
